<svg width="265" height="262" viewBox="0 0 265 262" fill="none" xmlns="http://www.w3.org/2000/svg">
<path d="M30.0836 40.2837C37.6641 33.647 44.9039 29.5147 49.4216 27.229C63.1208 20.298 70.708 20.7723 88.9769 14.5595C105.672 8.88149 102.874 7.28203 114.259 3.93342C119.433 2.41301 148.244 -5.56241 176.244 6.79429C176.46 6.89015 176.156 6.75728 199.488 20.6899C215.316 30.142 219.766 32.7136 226.041 37.7827C231.834 42.4651 237.601 47.9143 243.397 54.4669C252.382 64.6254 255.7 74.984 258.211 81.5837C260.424 87.4013 263.817 96.5153 264.824 108.862C265.2 113.465 264.932 118.4 264.407 128.077C263.67 141.679 263.301 148.48 262.351 154.821C259.682 172.628 253.149 185.809 249.645 192.745C245.75 200.453 237.126 217.129 219.798 232.279C214.81 236.642 183.426 263.274 139.719 261.952C125.013 261.507 114.224 257.931 92.6438 250.78C69.6708 243.166 57.4753 238.906 44.1168 228.71C20.0345 210.329 11.14 184.4 7.41609 173.538C0.391123 153.05 0.240085 135.693 0.0387002 112.656C-0.0737396 99.726 -0.0854871 93.0843 2.11632 84.4428C8.4398 59.6269 25.2101 44.5489 30.0836 40.2837Z" fill="#667083"/>
</svg>
